# xmcd CD database file
#
# Track frame offsets:
#	150
#	12920
#	34114
#	53250
#	77664
#	114145
#	127853
#	154425
#	178475
#	192487
#	212007
#
# Disc length: 4090 seconds
#
# Revision: 1
# Processed by: cddbd v1.5.2PL0 Copyright (c) Steve Scherf et al.
# Submitted via: CDex 1.51
#
DISCID=890ff80b
DTITLE=Erik Wøllo - emoitnal landscapes
DYEAR=2203
DGENRE=New Age
TTITLE0=In the Picture
TTITLE1=Metaphor
TTITLE2=Prism
TTITLE3=Second Totem
TTITLE4=Sounds of the Seen, Part I
TTITLE5=Valley
TTITLE6=Virtual World
TTITLE7=Mountain Beach
TTITLE8=Sounds of the Seen, Part II
TTITLE9=Satellite
TTITLE10=Echo off Night, Cadence
EXTD=YEAR: 2203
EXTT0=
EXTT1=
EXTT2=
EXTT3=
EXTT4=
EXTT5=
EXTT6=
EXTT7=
EXTT8=
EXTT9=
EXTT10=
PLAYORDER=
